<svg width="113" height="113" viewBox="0 0 113 113" fill="none" xmlns="http://www.w3.org/2000/svg">
<path fill-rule="evenodd" clip-rule="evenodd" d="M91.9482 60.3077C103.842 63.0284 112.534 73.9109 112.534 86.1539C112.534 100.664 100.64 112.453 86.0013 112.453C75.0224 112.453 65.4159 105.652 61.2988 95.6761H4.11709C1.82982 95.6761 0 93.8624 0 91.5952V80.7126C0 78.4454 1.82982 76.6316 3.65963 76.6316V69.83C3.65963 68.4696 4.57454 67.1093 5.48945 66.2024V34.915H5.03199C2.28727 34.915 0 32.6478 0 29.9271V21.3117C0 19.0445 1.37236 17.2308 3.20218 16.3239L47.1178 0.453441C47.5752 0.453441 48.4901 0 48.9476 0C49.405 0 50.3199 0 50.7774 0.453441L94.693 16.3239C96.5228 17.2308 97.8951 19.0445 97.8951 21.3117V29.9271C97.8951 32.6478 95.6079 34.915 92.8631 34.915H92.4057V60.7611L91.9482 60.3077ZM87.3737 59.8543V34.915H80.9693V60.3077C82.7992 59.8543 84.1715 59.8543 86.0013 59.8543C86.4588 59.8543 86.9162 59.8543 87.3737 59.8543ZM21.0429 66.2024C22.4152 67.1093 22.8727 68.4696 22.8727 69.83V76.6316H38.8836V69.83C38.8836 68.4696 39.7985 67.1093 40.7134 66.2024V34.915H21.0429V66.2024ZM51.6923 65.2956V34.915H45.2879V65.2956H51.6923ZM43.4581 69.83V76.1781H53.5221V69.83H43.4581ZM56.7243 65.749C58.0966 66.6559 58.5541 68.0162 58.5541 69.3765V76.1781H61.2988C64.0435 69.3765 69.533 63.9352 76.3948 61.2146V34.4615H56.7243V65.749ZM4.57454 20.8583V29.0202C4.57454 29.4737 4.57454 29.4737 5.03199 29.4737H92.8631C93.3206 29.4737 93.3206 29.4737 93.3206 29.0202V20.4049C93.3206 20.4049 93.3206 19.9514 92.8631 19.9514L48.9476 4.08097L5.03199 19.9514L4.57454 20.4049V20.8583ZM48.9476 11.336C53.5221 11.336 56.7243 14.9636 56.7243 19.0445C56.7243 23.5789 53.0647 26.753 48.9476 26.753C44.373 26.753 41.1709 23.1255 41.1709 19.0445C41.1709 14.5101 44.8305 11.336 48.9476 11.336ZM48.9476 22.2186C50.7774 22.2186 52.1497 20.8583 52.1497 19.0445C52.1497 17.2308 50.7774 15.8704 48.9476 15.8704C47.1178 15.8704 45.7454 17.2308 45.7454 19.0445C45.7454 20.8583 47.1178 22.2186 48.9476 22.2186ZM16.9258 34.4615H10.5214V64.8421H16.9258V34.4615ZM8.69162 69.3765V75.7247H18.7556V69.3765H8.69162ZM5.03199 90.6883H60.3839C59.9265 88.8745 59.9265 87.5142 59.9265 85.7004C59.9265 83.8867 59.9265 82.5263 60.3839 80.7126H5.03199V90.6883ZM86.4588 107.466C98.3526 107.466 108.417 97.9433 108.417 85.7004C108.417 73.9109 98.81 63.9352 86.4588 63.9352C74.565 63.9352 64.501 73.4575 64.501 85.7004C64.501 97.4899 74.1075 107.466 86.4588 107.466ZM93.7781 75.2713C94.2355 74.8178 95.1504 74.3644 95.6079 74.3644C96.9802 74.3644 97.8951 75.2713 97.8951 76.6316C97.8951 77.085 97.8951 77.5385 97.4377 77.9919L84.1715 96.583C83.7141 97.0364 83.2566 97.4899 82.3417 97.4899C81.8842 97.4899 80.9693 97.0365 80.5119 97.0365L75.0224 91.5952C74.565 91.1417 74.565 90.6883 74.565 89.7814C74.565 88.4211 75.4799 87.5142 76.8523 87.5142C77.3097 87.5142 78.2246 87.9676 78.6821 87.9676L82.3417 91.5952L93.7781 75.2713Z" fill="url(#paint0_linear_975_1716)"/>
<defs>
<linearGradient id="paint0_linear_975_1716" x1="22.8727" y1="92.9555" x2="107.636" y2="4.24156" gradientUnits="userSpaceOnUse">
<stop stop-color="#BC71F5"/>
<stop offset="0.588235" stop-color="#5EB1F9"/>
<stop offset="1" stop-color="#00F2FE"/>
</linearGradient>
</defs>
</svg>
