<svg width="59" height="83" viewBox="0 0 59 83" fill="none" xmlns="http://www.w3.org/2000/svg">
<path d="M34.9722 58.6305L29.2445 52.9028C27.3572 51.0155 26.4276 48.886 26.4864 46.5703C26.5914 42.2483 30.1742 38.9512 30.3268 38.8126C30.863 38.3198 31.6932 38.3338 32.2197 38.8434L48.1972 54.3421C48.7446 54.8727 48.7586 55.7505 48.228 56.298C47.6974 56.8454 46.8195 56.8594 46.2721 56.3288L31.3124 41.8199C30.4626 42.8658 29.2949 44.6578 29.2515 46.6529C29.2179 48.2 29.8549 49.6015 31.2018 50.9497L37.6477 57.3956C38.1181 57.866 38.1783 58.5927 37.8283 59.1289L37.8241 59.1359C37.1073 60.3862 36.7279 61.8114 36.7279 63.2605C36.7279 65.3158 37.4853 67.2913 38.8672 68.8215C39.3796 69.3886 39.332 70.2636 38.765 70.7746C38.5017 71.0126 38.1699 71.1317 37.8381 71.1317C37.4587 71.1317 37.0821 70.9762 36.8091 70.6724C34.9722 68.6339 33.9599 66.0018 33.9599 63.2605C33.9599 61.656 34.3086 60.0753 34.9736 58.6305H34.9722ZM23.7171 8.29818H15.4175C14.6545 8.29818 14.0342 7.67795 14.0342 6.91492C14.0342 6.15188 14.6545 5.53165 15.4175 5.53165H23.7171C24.4801 5.53165 25.1003 6.15188 25.1003 6.91492C25.1003 7.67795 24.4801 8.29818 23.7171 8.29818ZM56.9168 82.9972C56.1538 82.9972 55.5335 82.377 55.5335 81.6139V53.7765C55.5335 52.6032 54.8139 50.8377 53.9921 50.0061L38.933 34.877V40.116C38.933 40.8791 38.3127 41.4993 37.5497 41.4993C36.7867 41.4993 36.1664 40.8791 36.1664 40.116V6.91632C36.1664 4.62861 34.3044 2.76653 32.0166 2.76653H7.11651C4.82881 2.76653 2.96672 4.62861 2.96672 6.91632V59.4761V59.4817V62.2482C2.96672 64.5359 4.82881 66.398 7.11651 66.398H30.6334C31.3964 66.398 32.0166 67.0183 32.0166 67.7813C32.0166 68.5443 31.3964 69.1646 30.6334 69.1646H7.11651C3.30414 69.1646 0.200195 66.0606 0.200195 62.2482V59.4817V6.91632C0.200195 3.10394 3.30414 0 7.11651 0H32.0166C35.829 0 38.933 3.10394 38.933 6.91632V30.9568L55.9591 48.0628C57.2948 49.4209 58.3 51.8752 58.3 53.7793V81.6167C58.3 82.3798 57.6798 83 56.9168 83V82.9972ZM32.0166 82.9972C31.2536 82.9972 30.6334 82.377 30.6334 81.6139V75.5685C29.3635 74.9104 28.1903 74.0494 27.1332 73.0007C26.5914 72.4645 26.5886 71.5867 27.1248 71.0449C27.6638 70.503 28.5417 70.5002 29.0807 71.0365C30.1182 72.0683 31.2942 72.8705 32.5697 73.4264C33.0737 73.6476 33.3999 74.146 33.3999 74.6934V81.6097C33.3999 82.3756 32.7797 82.9958 32.0166 82.9958V82.9972Z" fill="url(#paint0_linear_975_1458)"/>
<defs>
<linearGradient id="paint0_linear_975_1458" x1="12.2001" y1="68.6269" x2="56.1426" y2="3.46096" gradientUnits="userSpaceOnUse">
<stop stop-color="#BC71F5"/>
<stop offset="0.588235" stop-color="#5EB1F9"/>
<stop offset="1" stop-color="#00F2FE"/>
</linearGradient>
</defs>
</svg>
