<svg width="124" height="98" viewBox="0 0 124 98" fill="none" xmlns="http://www.w3.org/2000/svg">
<path d="M120.596 10.5743C118.993 8.56055 116.59 7.35228 114.186 7.35228L27.645 0.102636C25.241 -0.300122 22.8371 0.505394 20.8339 2.11643C18.8306 3.72746 17.6287 5.74125 17.6287 8.56055L16.0261 25.0736H9.21498C4.00652 25.0736 0 29.1012 0 34.3371V88.7094C0 93.9452 4.00652 97.9728 9.21498 97.9728H96.1564C101.365 97.9728 105.371 93.9452 105.371 88.7094V79.8487L108.577 80.2515C108.977 80.2515 108.977 80.2515 109.378 80.2515C114.186 80.2515 118.192 76.6266 118.593 71.7935L123 17.4212C123.401 15.0047 122.599 12.5881 120.997 10.5743H120.596ZM90.1466 66.1549H66.9088C65.7068 66.1549 64.5049 67.3632 64.5049 68.5715V83.8763C64.5049 85.0846 65.7068 86.2928 66.9088 86.2928H90.1466C91.3485 86.2928 92.5505 85.0846 92.5505 83.8763V68.5715C92.5505 67.3632 91.3485 66.1549 90.1466 66.1549ZM87.7427 81.4597H69.3127V70.988H87.7427V81.4597ZM8.81433 29.9067H95.7557C98.1596 29.9067 100.163 31.9205 100.163 34.3371V39.1702H4.40717V34.3371C4.40717 31.9205 6.41042 29.9067 8.81433 29.9067ZM4.40717 44.0033H100.163V54.0722H4.40717V44.0033ZM95.7557 93.1397H8.81433C6.41042 93.1397 4.40717 91.1259 4.40717 88.7094V58.9053H100.163V88.7094C100.163 91.1259 98.1596 93.1397 95.7557 93.1397ZM117.792 17.0185L113.384 71.3908C112.984 73.8073 110.98 75.8211 108.577 75.4184L104.971 75.0156V34.3371C104.971 29.1012 100.964 25.0736 95.7557 25.0736H20.8339L22.4365 8.96331C22.8371 6.54676 24.8404 4.53297 27.2443 4.93573L113.785 12.1854C114.987 12.1854 116.189 12.9909 116.99 13.7964C117.792 14.6019 118.192 15.8102 118.192 17.0185H117.792Z" fill="url(#paint0_linear_975_1708)"/>
<defs>
<linearGradient id="paint0_linear_975_1708" x1="25.241" y1="81.057" x2="118.586" y2="4.61059" gradientUnits="userSpaceOnUse">
<stop stop-color="#BC71F5"/>
<stop offset="0.588235" stop-color="#5EB1F9"/>
<stop offset="1" stop-color="#00F2FE"/>
</linearGradient>
</defs>
</svg>
