<svg width="84" height="84" viewBox="0 0 84 84" fill="none" xmlns="http://www.w3.org/2000/svg">
<g clip-path="url(#clip0_975_1566)">
<path d="M42 84.0003C41.8299 84.0002 41.6607 83.9755 41.4977 83.9268C32.2068 81.3909 23.8302 76.2618 17.3477 69.1393C-0.5408 49.2873 3.6312 22.2148 4.64795 16.9893C4.70492 16.698 4.83504 16.426 5.02607 16.1989C5.21709 15.9717 5.46276 15.7969 5.73995 15.6908C11.1475 13.6206 16.4972 11.4453 21.644 9.22458C28.2642 6.37208 34.8109 3.34808 41.1092 0.233076C41.3688 0.0864401 41.6607 0.00648666 41.9588 0.000378396C42.2569 -0.00572987 42.5518 0.0621978 42.8172 0.198076C49.1365 3.32533 55.7112 6.36158 62.356 9.22283C67.5027 11.4453 72.856 13.6206 78.26 15.6978C78.5372 15.8039 78.7828 15.9787 78.9738 16.2059C79.1649 16.433 79.295 16.705 79.352 16.9963C80.3687 22.2218 84.5407 49.2943 66.647 69.1463C60.1823 76.2498 51.8327 81.3707 42.5705 83.9128C42.3864 83.9734 42.1936 84.0029 42 84.0003ZM7.9117 18.6046C6.9527 24.3481 3.9847 49.0826 19.95 66.7943C25.8822 73.3098 33.5207 78.0336 42 80.4303C50.4792 78.0336 58.1178 73.3098 64.05 66.7943C80.0135 49.0826 77.0455 24.3481 76.0865 18.6046C70.9485 16.6253 65.87 14.5533 60.9735 12.4376C54.5265 9.66208 48.1477 6.72383 42 3.69633C35.8522 6.72383 29.4735 9.66208 23.0265 12.4463C18.13 14.5533 13.0515 16.6253 7.9117 18.6046Z" fill="url(#paint0_linear_975_1566)"/>
<path d="M42 59.5C37.3587 59.5 32.9075 57.6563 29.6256 54.3744C26.3437 51.0925 24.5 46.6413 24.5 42C24.5 37.3587 26.3437 32.9075 29.6256 29.6256C32.9075 26.3437 37.3587 24.5 42 24.5C42.4641 24.5 42.9093 24.6844 43.2374 25.0126C43.5656 25.3408 43.75 25.7859 43.75 26.25C43.75 26.7141 43.5656 27.1592 43.2374 27.4874C42.9093 27.8156 42.4641 28 42 28C39.2311 28 36.5243 28.8211 34.222 30.3594C31.9197 31.8978 30.1253 34.0843 29.0657 36.6424C28.0061 39.2006 27.7288 42.0155 28.269 44.7313C28.8092 47.447 30.1426 49.9416 32.1005 51.8995C34.0584 53.8574 36.553 55.1908 39.2687 55.731C41.9845 56.2712 44.7994 55.9939 47.3576 54.9343C49.9157 53.8747 52.1022 52.0803 53.6406 49.778C55.1789 47.4757 56 44.7689 56 42C56 41.5359 56.1844 41.0907 56.5126 40.7626C56.8408 40.4344 57.2859 40.25 57.75 40.25C58.2141 40.25 58.6592 40.4344 58.9874 40.7626C59.3156 41.0907 59.5 41.5359 59.5 42C59.4949 46.6397 57.6495 51.088 54.3687 54.3687C51.088 57.6495 46.6397 59.4949 42 59.5Z" fill="url(#paint1_linear_975_1566)"/>
<path d="M43.7501 47.2495C43.286 47.2494 42.8409 47.065 42.5128 46.7368L35.5128 39.7368C35.2228 39.403 35.0698 38.9718 35.0847 38.5298C35.0997 38.0879 35.2813 37.668 35.5932 37.3545C35.9051 37.0411 36.3242 36.8573 36.766 36.8402C37.2079 36.8231 37.6399 36.9739 37.9751 37.2623L43.5926 42.8798L56.3676 26.9058C56.5112 26.7263 56.6888 26.5769 56.8902 26.466C57.0916 26.3552 57.3128 26.2851 57.5413 26.2597C57.7698 26.2343 58.001 26.2543 58.2218 26.3183C58.4426 26.3823 58.6486 26.4892 58.8281 26.6328C59.0076 26.7764 59.157 26.954 59.2679 27.1554C59.3787 27.3568 59.4488 27.578 59.4742 27.8065C59.4995 28.035 59.4796 28.2662 59.4156 28.487C59.3516 28.7078 59.2447 28.9138 59.1011 29.0933L45.1011 46.5933C44.9473 46.7851 44.7549 46.9424 44.5362 47.0548C44.3176 47.1673 44.0778 47.2325 43.8323 47.246L43.7501 47.2495Z" fill="url(#paint2_linear_975_1566)"/>
</g>
<defs>
<linearGradient id="paint0_linear_975_1566" x1="11.0059" y1="72.0975" x2="70.8485" y2="-1.47161" gradientUnits="userSpaceOnUse">
<stop stop-color="#BC71F5"/>
<stop offset="0.588235" stop-color="#5EB1F9"/>
<stop offset="1" stop-color="#00F2FE"/>
</linearGradient>
<linearGradient id="paint1_linear_975_1566" x1="27.912" y1="54.5405" x2="52.3208" y2="21.8049" gradientUnits="userSpaceOnUse">
<stop stop-color="#BC71F5"/>
<stop offset="0.588235" stop-color="#5EB1F9"/>
<stop offset="1" stop-color="#00F2FE"/>
</linearGradient>
<linearGradient id="paint2_linear_975_1566" x1="37.4625" y1="44.2737" x2="51.3542" y2="22.6262" gradientUnits="userSpaceOnUse">
<stop stop-color="#BC71F5"/>
<stop offset="0.588235" stop-color="#5EB1F9"/>
<stop offset="1" stop-color="#00F2FE"/>
</linearGradient>
<clipPath id="clip0_975_1566">
<rect width="84" height="84" fill="white"/>
</clipPath>
</defs>
</svg>
