<svg width="78" height="101" viewBox="0 0 78 101" fill="none" xmlns="http://www.w3.org/2000/svg">
<path d="M76.5526 24.1194L53.0563 0.753731C52.2983 0 51.5404 0 50.7824 0H9.09536C4.54768 0 0 3.76866 0 9.04478V91.9552C0 96.4776 3.78973 101 9.09536 101H68.2152C72.7629 101 77.3106 97.2313 77.3106 91.9552V26.3806C77.3106 25.6269 77.3106 24.8731 76.5526 24.1194ZM44.7188 76.8806H21.2225C19.7066 76.8806 18.1907 78.3881 18.1907 79.8955C18.1907 81.403 19.7066 82.9104 21.2225 82.9104H44.7188C46.2347 82.9104 47.7506 81.403 47.7506 79.8955C47.7506 78.3881 46.2347 76.8806 44.7188 76.8806ZM56.846 64.8209H21.2225C19.7066 64.8209 18.1907 66.3284 18.1907 67.8358C18.1907 69.3433 19.7066 70.8507 21.2225 70.8507H56.846C58.3619 70.8507 59.8778 69.3433 59.8778 67.8358C59.8778 66.3284 58.3619 64.8209 56.846 64.8209ZM56.846 52.7612H21.2225C19.7066 52.7612 18.1907 54.2687 18.1907 55.7761C18.1907 57.2836 19.7066 58.791 21.2225 58.791H56.846C58.3619 58.791 59.8778 57.2836 59.8778 55.7761C59.8778 54.2687 58.3619 52.7612 56.846 52.7612ZM56.846 40.7015H21.2225C19.7066 40.7015 18.1907 42.209 18.1907 43.7164C18.1907 45.2239 19.7066 46.7313 21.2225 46.7313H56.846C58.3619 46.7313 59.8778 45.2239 59.8778 43.7164C59.8778 42.209 58.3619 40.7015 56.846 40.7015ZM53.8142 9.04478L67.4572 22.6119H56.846C55.3301 22.6119 53.8142 21.1045 53.8142 19.597V9.04478ZM68.9731 93.4627H9.85331C8.33741 93.4627 6.82152 91.9552 6.82152 90.4478V7.53731C6.82152 6.02985 8.33741 4.52239 9.85331 4.52239H48.5086V19.597C48.5086 24.1194 52.2983 28.6418 57.6039 28.6418H72.7629V91.2015C72.7629 92.709 71.247 94.2164 69.7311 94.2164L68.9731 93.4627Z" fill="url(#paint0_linear_975_1722)"/>
<defs>
<linearGradient id="paint0_linear_975_1722" x1="15.9169" y1="82.9104" x2="73.859" y2="4.21332" gradientUnits="userSpaceOnUse">
<stop stop-color="#BC71F5"/>
<stop offset="0.588235" stop-color="#5EB1F9"/>
<stop offset="1" stop-color="#00F2FE"/>
</linearGradient>
</defs>
</svg>
