<svg width="58" height="74" viewBox="0 0 58 74" fill="none" xmlns="http://www.w3.org/2000/svg">
<path d="M42.7683 14.7407H41.7382V20.2222C41.7382 24.8148 39.3099 28.8889 35.6308 31.1111C35.9251 32.0741 36.5874 32.8148 37.3968 33.3333C37.4704 33.4074 37.544 33.4074 37.6175 33.4815C38.2062 33.8519 38.942 34 39.6779 34C44.3872 34 48.8757 36.4444 51.9662 40.6667C52.5549 41.5556 53.1435 42.5185 53.7322 43.7778L57.4113 51.5556C58.4415 53.7037 58.0736 56.3704 56.6019 58.2222L49.4644 66.963V68V71.3333H56.6755C57.4113 71.3333 58 71.9259 58 72.6667C58 73.4074 57.4113 74 56.6755 74H48.1399H9.95036H1.41474C0.678909 74 0.090246 73.4074 0.090246 72.6667C0.090246 71.9259 0.678909 71.3333 1.41474 71.3333H8.62586V68V67.037L1.41474 58.2222C-0.130503 56.3704 -0.424834 53.7778 0.605326 51.5556L4.28447 43.7778C4.87314 42.5185 5.4618 41.5556 6.05046 40.6667C9.14094 36.4444 13.6295 34 18.3388 34C19.0746 34 19.8105 33.7778 20.3991 33.4815C20.4727 33.4074 20.5463 33.4074 20.6199 33.3333C21.4293 32.8148 22.018 32.0741 22.3859 31.1111C18.7067 28.8889 16.2785 24.8148 16.2785 20.2222V14.7407H15.2483H13.9238C13.188 14.7407 12.5993 14.1481 12.5993 13.4074C12.5993 12.6667 13.188 12.0741 13.9238 12.0741H14.1446C15.6898 5.11111 21.8708 0 29.0819 0C36.293 0 42.474 5.11111 44.0192 12.0741H44.1664C44.9022 12.0741 45.4909 12.6667 45.4909 13.4074C45.4909 14.1481 44.9022 14.7407 44.1664 14.7407H42.9155H42.7683ZM46.7418 69.4074H11.1277V71.4074H46.7418V69.4074ZM11.1277 66.7407H46.6682C46.6682 66.5185 46.6682 66.3704 46.7418 66.2222V52.0741C46.7418 50.5185 45.4909 49.3333 44.0192 49.3333H13.9238C12.3786 49.3333 11.2013 50.5926 11.2013 52.0741V66.5926V66.6667V66.7407H11.1277ZM39.0156 14.7407H32.3196H25.4028H18.7067V20.2222C18.7067 24.1481 20.9142 27.4815 24.1519 29.1852C24.2254 29.1852 24.299 29.2593 24.299 29.2593C27.1688 30.6667 30.48 30.6667 33.3497 29.2593C33.4233 29.2593 33.4969 29.1852 33.4969 29.1852C36.7345 27.4815 38.942 24.0741 38.942 20.2222V14.7407H39.0156ZM28.8612 33.037C27.3895 33.037 25.9178 32.7407 24.5934 32.2963C24.1519 33.5556 23.3424 34.5926 22.3123 35.3333C22.3123 38.963 25.2556 41.9259 28.8612 41.9259C32.4667 41.9259 35.41 38.963 35.41 35.3333C34.3799 34.5926 33.5705 33.5556 33.129 32.2963C31.8045 32.7407 30.3328 33.037 28.8612 33.037ZM28.8612 62.963C26.2858 62.963 24.2254 60.8889 24.2254 58.2963C24.2254 55.7037 26.2858 53.6296 28.8612 53.6296C31.4366 53.6296 33.4969 55.7037 33.4969 58.2963C33.4969 60.8889 31.4366 62.963 28.8612 62.963ZM28.8612 56.2963C27.7574 56.2963 26.8744 57.1852 26.8744 58.2963C26.8744 59.4074 27.7574 60.2963 28.8612 60.2963C29.9649 60.2963 30.8479 59.4074 30.8479 58.2963C30.8479 57.1852 29.9649 56.2963 28.8612 56.2963ZM8.4787 62.963V52.0741C8.4787 49.1111 10.9069 46.6667 13.8503 46.6667H43.9457C46.889 46.6667 49.3172 49.1111 49.3172 52.0741V62.8889L54.3944 56.6667C55.2774 55.6296 55.4982 54.0741 54.9095 52.8148L51.2304 45.037C50.7153 43.9259 50.2002 43.1111 49.6851 42.3704C47.1097 38.8148 43.4306 36.7407 39.5307 36.7407C39.0156 36.7407 38.4269 36.6667 37.9119 36.5185C37.3232 41.037 33.4233 44.5185 28.7876 44.5185C24.1519 44.5185 20.252 41.037 19.6633 36.5185C19.1482 36.6667 18.6331 36.7407 18.0445 36.7407C14.1446 36.7407 10.4654 38.8148 7.89004 42.3704C7.37495 43.1111 6.85987 43.9259 6.34479 45.037L2.66565 52.8148C2.07698 54.0741 2.29773 55.5556 3.10715 56.6667L8.25795 62.963H8.4787ZM30.9951 12.1481V6.66667C30.9951 5.92593 31.5837 5.33333 32.3196 5.33333C33.0554 5.33333 33.6441 5.92593 33.6441 6.66667V12.1481H40.3401H41.0759C39.6043 6.66667 34.6006 2.74074 28.8612 2.74074C23.1217 2.74074 18.1181 6.66667 16.6464 12.1481H17.3822H24.0783V6.66667C24.0783 5.92593 24.6669 5.33333 25.4028 5.33333C26.1386 5.33333 26.7273 5.92593 26.7273 6.66667V12.1481H30.9951Z" fill="url(#paint0_linear_975_1573)"/>
<defs>
<linearGradient id="paint0_linear_975_1573" x1="11.9371" y1="61.2593" x2="56.2371" y2="3.39512" gradientUnits="userSpaceOnUse">
<stop stop-color="#BC71F5"/>
<stop offset="0.588235" stop-color="#5EB1F9"/>
<stop offset="1" stop-color="#00F2FE"/>
</linearGradient>
</defs>
</svg>
