<svg width="88" height="88" viewBox="0 0 88 88" fill="none" xmlns="http://www.w3.org/2000/svg">
<path d="M40.1174 54.3557H36.6678V31.9262C36.6678 31.2701 36.2958 30.6749 35.7141 30.384C35.1324 30.0932 34.4289 30.154 33.9081 30.5463L27.0088 35.7208C26.2444 36.2958 26.0889 37.3713 26.6638 38.1356C27.2387 38.8999 28.3142 39.0555 29.0786 38.4806L33.2181 35.3759V54.3557H29.7685C28.8148 54.3557 28.0437 55.1268 28.0437 56.0806C28.0437 57.0343 28.8148 57.8054 29.7685 57.8054H40.1242C41.0779 57.8054 41.849 57.0343 41.849 56.0806C41.849 55.1268 41.0779 54.3557 40.1242 54.3557H40.1174ZM65.5705 17.2753H70.745V22.4498C70.745 23.4035 71.5161 24.1746 72.4698 24.1746C73.4235 24.1746 74.1946 23.4035 74.1946 22.4498V17.2753H79.3691C80.3228 17.2753 81.0939 16.5042 81.0939 15.5505C81.0939 14.5968 80.3228 13.8257 79.3691 13.8257C77.5158 13.8257 75.6286 13.8257 74.1946 13.8257C74.1946 10.1596 74.1946 10.7886 74.1946 8.65119C74.1946 7.69746 73.4235 6.92636 72.4698 6.92636C71.5161 6.92636 70.745 7.69746 70.745 8.65119V13.8257H65.5705C64.6168 13.8257 63.8457 14.5968 63.8457 15.5505C63.8457 16.5042 64.6168 17.2753 65.5705 17.2753ZM88 15.5505C88 6.98724 81.0331 0.0202921 72.4698 0.0202921C68.5264 0.0202921 64.9279 1.49485 62.1885 3.92314C56.4661 1.31899 50.3582 0 44 0C32.2441 0 21.1985 4.57925 12.8855 12.8855C4.57248 21.1985 0 32.2441 0 44C0 55.7559 4.57925 66.8015 12.8855 75.1145C21.1985 83.4275 32.2441 88 44 88C55.7559 88 66.8015 83.4208 75.1145 75.1145C83.4275 66.8015 88 55.7559 88 44C88 37.6553 86.6878 31.5542 84.0904 25.8386C86.5254 23.0992 88 19.4939 88 15.5437V15.5505ZM84.5503 15.5505C84.5503 20.8603 81.0872 25.5071 76.0547 27.0832C69.196 29.2206 62.0532 24.8984 60.6395 17.9788C59.0973 10.4437 64.8873 3.46995 72.4698 3.46995C79.1324 3.46995 84.5503 8.88793 84.5503 15.5505ZM44 84.5503C21.6381 84.5503 3.44965 66.3619 3.44965 44C3.44965 21.6381 21.6381 3.44965 44 3.44965C49.4856 3.44965 54.7819 4.51837 59.7602 6.62198C57.9271 9.22613 56.9464 12.3443 56.9464 15.5437C56.9464 25.6898 66.5377 33.1099 76.3659 30.5802C78.1651 30.1202 79.8629 29.3356 81.3915 28.2601C83.4884 33.2317 84.5571 38.5144 84.5571 43.9932C84.5571 66.3551 66.3686 84.5436 44.0068 84.5436L44 84.5503ZM61.6879 37.9597C61.6879 33.6781 58.2045 30.1946 53.9228 30.1946C49.6412 30.1946 46.1577 33.6781 46.1577 37.9597C46.1577 40.3948 47.2873 42.5728 49.0527 44C47.2873 45.4272 46.1577 47.6052 46.1577 50.0403C46.1577 54.3219 49.6412 57.8054 53.9228 57.8054C58.2045 57.8054 61.6879 54.3219 61.6879 50.0403C61.6879 47.6052 60.5583 45.4272 58.7929 44C60.5583 42.5728 61.6879 40.3948 61.6879 37.9597ZM58.2383 50.0403C58.2383 52.4212 56.3038 54.3557 53.9228 54.3557C51.5419 54.3557 49.6074 52.4212 49.6074 50.0403C49.6074 47.6593 51.5419 45.7248 53.9228 45.7248C56.3038 45.7248 58.2383 47.6593 58.2383 50.0403ZM49.6074 37.9597C49.6074 35.5788 51.5419 33.6443 53.9228 33.6443C56.3038 33.6443 58.2383 35.5788 58.2383 37.9597C58.2383 40.3407 56.3038 42.2752 53.9228 42.2752C51.5419 42.2752 49.6074 40.3407 49.6074 37.9597Z" fill="url(#paint0_linear_975_1492)"/>
<defs>
<linearGradient id="paint0_linear_975_1492" x1="18.1749" y1="72.7674" x2="84.733" y2="3.67286" gradientUnits="userSpaceOnUse">
<stop stop-color="#BC71F5"/>
<stop offset="0.588235" stop-color="#5EB1F9"/>
<stop offset="1" stop-color="#00F2FE"/>
</linearGradient>
</defs>
</svg>
