<svg width="72" height="79" viewBox="0 0 72 79" fill="none" xmlns="http://www.w3.org/2000/svg">
<path d="M9.2485 17.5076C3.96595 23.0851 0.739141 30.3171 0.12242 37.9726C0.0415767 38.9165 0 39.8805 0 40.8321C0 56.2686 10.3911 69.7772 25.3086 73.7385C25.4726 73.7839 25.6428 73.8078 25.8137 73.8078C26.8316 73.8078 27.6577 72.9824 27.6577 71.9638C27.6577 71.1138 27.0764 70.3739 26.251 70.1722C12.9519 66.6389 3.68954 54.5932 3.68954 40.8314C3.68954 27.1103 12.8965 15.0939 26.1432 11.5214L22.2743 15.7991C21.9686 16.1364 21.7985 16.5775 21.7985 17.0349C21.7985 18.0535 22.6239 18.8789 23.6425 18.8789C24.1637 18.8789 24.6603 18.6579 25.0099 18.2722L32.4845 10.0084C32.7909 9.66965 32.9611 9.22848 32.9611 8.7719C32.9611 8.20985 32.7047 7.67782 32.2643 7.32827L23.5409 0.394208C23.2159 0.138589 22.814 0 22.4014 0C21.3835 0 20.5573 0.826143 20.5573 1.844C20.5573 2.40298 20.8107 2.93192 21.2464 3.28148L26.6768 7.59852C20.0138 9.08835 13.9367 12.5469 9.24927 17.5115L9.25081 17.5092L9.2485 17.5076ZM33.9096 21.9201V39.33C33.9096 40.3478 34.7358 41.174 35.7536 41.174H51.3526C52.3704 41.174 53.1966 40.3478 53.1966 39.33C53.1966 38.3121 52.3704 37.486 51.3526 37.486H37.5976V21.9201C37.5976 20.9023 36.7722 20.0761 35.7536 20.0761C34.7358 20.0761 33.9096 20.9023 33.9096 21.9201ZM67.7168 27.573L63.9688 28.7618C63.1881 28.9951 62.6529 29.7135 62.6529 30.5288C62.6529 31.5467 63.4791 32.3728 64.4969 32.3728C64.6964 32.3728 64.895 32.3405 65.0844 32.2766L68.8325 31.0878C69.5986 30.8453 70.119 30.1338 70.119 29.33C70.119 28.3122 69.2937 27.486 68.275 27.486C68.0856 27.486 67.8978 27.5153 67.7176 27.5723V27.573H67.7168ZM60.5479 16.1995L57.4921 18.6733C57.0486 19.0229 56.7899 19.5564 56.7899 20.1208C56.7899 21.1387 57.616 21.9648 58.6339 21.9648C59.0643 21.9648 59.4816 21.8139 59.8119 21.539L62.8678 19.0652C63.2889 18.7149 63.5338 18.1952 63.5338 17.647C63.5338 16.6291 62.7076 15.803 61.6898 15.803C61.2755 15.803 60.8728 15.9431 60.5479 16.1995ZM49.3831 14.3994C49.3838 14.3994 49.3838 14.3994 49.3846 14.3994C50.0483 14.3994 50.6604 14.0429 50.9884 13.4662L52.9309 10.0477C53.0842 9.77282 53.165 9.46254 53.165 9.14763C53.165 8.12978 52.3389 7.30363 51.321 7.30363C50.6627 7.30363 50.0529 7.65549 49.7241 8.22602L47.7808 11.6445C47.6238 11.9217 47.5398 12.2366 47.5398 12.5554C47.5398 13.5732 48.3652 14.3994 49.3831 14.3994ZM38.0011 10.7506C38.9173 10.7499 39.6934 10.0762 39.8235 9.16919L40.384 5.27716C40.3987 5.18322 40.4064 5.08775 40.4064 4.99305C40.4064 3.97519 39.5802 3.14905 38.5624 3.14905C37.6377 3.14905 36.8554 3.83429 36.7345 4.75129L36.1732 8.64332C36.1609 8.73033 36.1548 8.8181 36.1548 8.9051C36.1548 9.92373 36.9809 10.7506 38.0003 10.7506H38.0011ZM36.9963 71.0645C36.0354 71.1384 35.294 71.9399 35.294 72.9031C35.294 72.9501 35.2955 72.9978 35.2994 73.0448L35.6012 76.9653C35.6751 77.9254 36.475 78.6669 37.4375 78.6677C37.4852 78.6677 37.5329 78.6661 37.5807 78.6623C38.5408 78.5883 39.283 77.7868 39.283 76.8236C39.283 76.7767 39.2815 76.7289 39.2776 76.682L38.9758 72.7615C38.9019 71.8013 38.1004 71.0591 37.1372 71.0591C37.0902 71.0591 37.0425 71.0607 36.9955 71.0645H36.9963ZM47.8139 67.9016C47.1772 68.2096 46.773 68.8548 46.773 69.5616C46.773 69.8395 46.8361 70.1144 46.957 70.3639L48.6678 73.9033C48.9758 74.54 49.621 74.945 50.3278 74.945C51.3456 74.945 52.1718 74.1196 52.1718 73.101C52.1718 72.8231 52.1086 72.549 51.9878 72.2987L50.2762 68.7593C49.9682 68.1226 49.323 67.7184 48.6162 67.7184C48.3383 67.7184 48.0634 67.7815 47.8139 67.9024V67.9016ZM56.8322 63.6154L59.7172 66.287C60.0575 66.6004 60.5033 66.7744 60.966 66.7744C61.9839 66.7744 62.81 65.949 62.81 64.9304C62.81 64.4184 62.5975 63.9295 62.2225 63.5807L59.3376 60.909C58.9957 60.5872 58.543 60.4078 58.0734 60.4078C57.0555 60.4078 56.2294 61.2339 56.2294 62.2518C56.2294 62.7707 56.448 63.2658 56.8314 63.6154H56.8322ZM64.9096 50.2947C64.6994 50.2138 64.4754 50.1722 64.2498 50.1722C63.2319 50.1722 62.4058 50.9984 62.4058 52.0162C62.4058 52.77 62.8647 53.4476 63.5638 53.7278L67.2248 55.1622C67.4366 55.2438 67.6614 55.2862 67.8885 55.2862C68.9064 55.2862 69.7325 54.46 69.7325 53.4422C69.7325 52.6869 69.2721 52.0085 68.5707 51.7291L64.9096 50.2947ZM72 40.2223C72 39.2045 71.1739 38.3783 70.156 38.3783H66.2239C65.2061 38.3783 64.3799 39.2037 64.3799 40.2223C64.3799 41.2402 65.2053 42.0663 66.2239 42.0663H70.156C71.1739 42.0663 72 41.2402 72 40.2223Z" fill="url(#paint0_linear_975_1463)"/>
<defs>
<linearGradient id="paint0_linear_975_1463" x1="14.8706" y1="65.0451" x2="69.3275" y2="3.27993" gradientUnits="userSpaceOnUse">
<stop stop-color="#BC71F5"/>
<stop offset="0.588235" stop-color="#5EB1F9"/>
<stop offset="1" stop-color="#00F2FE"/>
</linearGradient>
</defs>
</svg>
