<svg width="75" height="75" viewBox="0 0 75 75" fill="none" xmlns="http://www.w3.org/2000/svg">
<path d="M14.0218 65.8457C13.7153 65.8457 13.4088 65.7228 13.2249 65.5385C12.7958 65.1084 12.7958 64.3712 13.2249 63.9411L29.347 47.7828C29.7761 47.3528 30.5117 47.3528 30.9408 47.7828C31.3699 48.2129 31.3699 48.9502 30.9408 49.3802L14.8187 65.5385C14.5735 65.7843 14.3283 65.8457 14.0218 65.8457ZM25.9754 36.2324L16.9642 27.201C12.3054 28.3069 7.40128 26.9553 4.02974 23.5761C0.412987 19.9513 -0.874331 14.6676 0.596889 9.81397C0.719491 9.44534 1.026 9.13815 1.3938 9.01527C1.76161 8.8924 2.19071 9.01527 2.49722 9.32246L9.05641 15.8349L13.8992 13.8689L15.8608 9.01527L9.36291 2.50281C9.05641 2.19562 8.9951 1.82699 9.05641 1.39693C9.17901 1.0283 9.42421 0.721104 9.85332 0.598228C14.6961 -0.876291 19.968 0.413913 23.5847 4.03877C26.9563 7.41788 28.3662 12.3329 27.2628 17.0023L39.6455 29.4128L56.1355 12.8859L57.7293 9.07671C57.7906 8.8924 57.9132 8.70808 58.0971 8.64664L66.4953 2.13419C66.9244 1.76556 67.5987 1.82699 67.9665 2.25706L72.6867 6.98781C73.1158 7.41788 73.1158 8.03226 72.8093 8.46233L66.3114 16.8794C66.1888 17.0023 66.0049 17.1251 65.8823 17.248L62.0816 18.8454L45.5917 35.3723L57.9745 47.7828C62.6333 46.6769 67.5374 48.0286 70.9703 51.4077C74.587 55.0326 75.8743 60.3163 74.4031 65.1699C74.2805 65.5385 73.974 65.8457 73.6062 65.9686C73.2384 66.0914 72.8093 65.9686 72.5028 65.6614L66.0049 59.0875L61.1621 61.0535L59.2005 65.9071L65.6984 72.481C66.0049 72.7882 66.0662 73.1569 66.0049 73.5869C65.8823 73.9556 65.6371 74.2627 65.208 74.3856C63.8594 74.8157 62.5107 75 61.1621 75C57.6067 75 54.0512 73.5869 51.4766 70.9451C48.105 67.566 46.6951 62.6509 47.8598 57.9816L38.8486 48.9502L17.332 70.515C15.6156 72.2353 13.2862 73.1569 11.018 73.1569C8.7499 73.1569 6.48177 72.2967 4.70405 70.5764C3.04892 68.9176 2.06811 66.6444 2.06811 64.2483C2.06811 61.8522 2.98762 59.6404 4.70405 57.9202L26.2206 36.3553L25.9754 36.2324ZM40.3811 31.7474C40.3811 31.8089 40.3198 31.8089 40.3198 31.8703C40.2585 31.9318 40.2585 31.9318 40.1972 31.9318L36.7644 35.3723L39.4003 38.0141L42.8945 34.5122C42.8945 34.4507 42.9558 34.4507 42.9558 34.3893C43.0171 34.3279 43.0171 34.3279 43.0784 34.3279L59.6296 17.7395L56.9937 15.0977L40.4424 31.686L40.3811 31.7474ZM37.8678 31.0716L25.0559 18.231C24.7494 17.9238 24.6881 17.4938 24.7494 17.1251C25.9141 13.0702 24.8107 8.70808 21.8683 5.69761C19.3549 3.1172 15.7995 1.94987 12.3667 2.37994L17.945 7.90938C18.2515 8.21658 18.3741 8.70808 18.1902 9.13815L15.7995 15.1591C15.6769 15.4663 15.4317 15.6506 15.1865 15.7735L9.24031 18.231C8.8112 18.4153 8.3208 18.2925 8.01429 17.9853L2.37461 12.3944C1.94551 15.8964 3.11022 19.3983 5.68486 21.9173C8.6886 24.8664 13.041 25.9722 17.0255 24.8049C17.3933 24.682 17.8837 24.8049 18.1289 25.1121L27.6306 34.635L31.0021 31.2559C31.4312 30.8259 32.1668 30.8259 32.5959 31.2559L35.1706 33.8363L37.9291 31.0716H37.8678ZM40.1972 47.2913L49.6376 56.7528C49.9441 57.06 50.0054 57.4901 49.9441 57.8587C48.7794 61.9136 49.8828 66.2758 52.8252 69.2248C55.3385 71.7438 58.894 72.9725 62.3268 72.5425L56.7485 66.8902C56.442 66.583 56.3194 66.0915 56.5033 65.6614L58.894 59.7019C59.0166 59.3947 59.2618 59.2104 59.507 59.0875L65.5145 56.6914C65.9436 56.5071 66.434 56.63 66.7405 56.9371L72.3189 62.528C72.748 59.026 71.5833 55.5241 69.0086 53.0051C66.0049 49.9946 61.6525 48.8887 57.6067 50.1175C57.2389 50.2404 56.7485 50.1175 56.5033 49.8103L43.6914 36.9697L40.9328 39.7344L43.5075 42.3148C43.6914 42.4991 43.814 42.8063 43.814 43.1135C43.814 43.4207 43.6914 43.7279 43.5075 43.9122L40.1359 47.2913H40.1972ZM58.281 13.316L61.4686 16.5107L64.4724 15.2205L70.1733 7.84795L66.8631 4.53028L59.507 10.244L58.2197 13.2545L58.281 13.316ZM34.435 36.4168C34.3737 36.3553 34.3124 36.3553 34.3124 36.2939C34.2511 36.2324 34.2511 36.171 34.1898 36.171L31.7377 33.7135L6.05266 59.4561C4.76535 60.7463 4.09104 62.4052 4.09104 64.1869C4.09104 65.9686 4.76535 67.6274 6.05266 68.9176C8.6273 71.498 12.8571 71.498 15.4317 68.9176L37.7452 46.5541L41.1167 43.175L38.6647 40.7174C38.6034 40.7174 38.6034 40.656 38.5421 40.656C38.4808 40.5946 38.4808 40.5946 38.4808 40.5331L34.435 36.4782V36.4168ZM10.1598 62.0365C9.85332 62.0365 9.54681 61.9136 9.36291 61.7293C8.9338 61.2993 8.9338 60.562 9.36291 60.1319L25.485 43.9737C25.9141 43.5436 26.6497 43.5436 27.0789 43.9737C27.508 44.4037 27.508 45.141 27.0789 45.5711L10.9567 61.7293C10.7115 61.9751 10.4663 62.0365 10.1598 62.0365Z" fill="url(#paint0_linear_975_1577)"/>
<defs>
<linearGradient id="paint0_linear_975_1577" x1="15.4317" y1="61.9136" x2="72.0823" y2="3.30543" gradientUnits="userSpaceOnUse">
<stop stop-color="#BC71F5"/>
<stop offset="0.588235" stop-color="#5EB1F9"/>
<stop offset="1" stop-color="#00F2FE"/>
</linearGradient>
</defs>
</svg>
