<svg width="130" height="94" viewBox="0 0 130 94" fill="none" xmlns="http://www.w3.org/2000/svg">
<path d="M103.432 93.9831H2.71171C1.16216 93.9831 0 92.8228 0 91.2758V33.6483C0 32.1012 1.16216 30.9409 2.71171 30.9409H103.432C104.982 30.9409 106.144 32.1012 106.144 33.6483V91.2758C106.144 92.8228 104.982 93.9831 103.432 93.9831ZM122.027 62.6554C120.477 62.6554 119.315 61.4951 119.315 59.9481C119.315 58.7878 120.09 57.6275 121.64 57.2407L123.577 56.854L113.892 5.80143L29.8288 22.0454H29.4414C27.8919 22.0454 26.7297 20.8851 26.7297 19.3381C26.7297 18.1778 27.5045 17.0175 29.0541 16.6308L115.829 0H116.216C117.378 0 118.541 0.773523 118.928 2.32057L129.775 58.7878V59.1745C129.775 60.3348 129 61.4951 127.45 61.8819L123.189 62.6554H122.802H122.027ZM109.631 78.5126C108.081 78.5126 106.919 77.3523 106.919 75.8053C106.919 74.2582 108.081 73.098 109.243 73.098L112.342 72.7112L106.919 20.8851L20.5315 29.7807C20.5315 29.7807 20.5315 29.7807 20.1441 29.7807C18.5946 29.7807 17.4324 28.6204 17.4324 27.0733C17.4324 25.5263 18.5946 24.366 19.7568 24.366L108.856 15.0837C108.856 15.0837 108.856 15.0837 109.243 15.0837C110.793 15.0837 111.955 16.244 111.955 17.4043L118.153 74.645C118.153 74.645 118.153 74.645 118.153 75.0318C118.153 76.5788 116.991 77.7391 115.829 77.7391L110.018 78.5126C110.018 78.5126 110.018 78.5126 109.631 78.5126ZM53.0721 77.3523C44.9369 77.3523 38.3513 70.7774 38.3513 62.6554C38.3513 54.5334 44.9369 47.9585 53.0721 47.9585C61.2072 47.9585 67.7928 54.5334 67.7928 62.6554C67.7928 70.7774 61.2072 77.3523 53.0721 77.3523ZM53.0721 52.9864C48.036 52.9864 43.7748 57.2407 43.7748 62.2686C43.7748 67.2965 48.036 71.5509 53.0721 71.5509C58.1081 71.5509 62.3694 67.2965 62.3694 62.2686C62.3694 57.2407 58.1081 52.9864 53.0721 52.9864ZM86 85.8611H20.1441C18.5946 85.8611 17.4324 84.7008 17.4324 83.1538C17.4324 80.0597 15.1081 77.7391 12.009 77.7391C10.4595 77.7391 9.2973 76.5788 9.2973 75.0318V49.8923C9.2973 48.3452 10.4595 47.1849 12.009 47.1849C15.1081 47.1849 17.4324 44.8644 17.4324 41.7703C17.4324 40.2232 18.5946 39.0629 20.1441 39.0629H86C87.5495 39.0629 88.7117 40.2232 88.7117 41.7703C88.7117 44.8644 91.036 47.1849 94.1351 47.1849C95.6847 47.1849 96.8468 48.3452 96.8468 49.8923V75.0318C96.8468 76.5788 95.6847 77.7391 94.1351 77.7391C91.036 77.7391 88.7117 80.0597 88.7117 83.1538C88.7117 84.7008 87.5495 85.8611 86 85.8611ZM22.4685 80.4464H83.6757C84.8378 76.5788 87.5495 73.8715 91.4234 72.7112V52.2128C87.5495 51.0525 84.8378 48.3452 83.6757 44.4776H22.4685C21.3063 48.3452 18.5946 51.0525 14.7207 52.2128V72.7112C18.5946 73.8715 21.3063 76.5788 22.4685 80.4464ZM5.42342 88.5684H100.721V36.3556H5.42342V88.5684Z" fill="url(#paint0_linear_975_1701)"/>
<defs>
<linearGradient id="paint0_linear_975_1701" x1="27.1171" y1="77.7391" x2="124.236" y2="3.71631" gradientUnits="userSpaceOnUse">
<stop stop-color="#BC71F5"/>
<stop offset="0.588235" stop-color="#5EB1F9"/>
<stop offset="1" stop-color="#00F2FE"/>
</linearGradient>
</defs>
</svg>
