<svg width="75" height="89" viewBox="0 0 75 89" fill="none" xmlns="http://www.w3.org/2000/svg">
<path d="M69.3803 6.27718L23.7922 0.0523791C20.7796 -0.365028 17.9848 1.7583 17.5674 4.77996L16.669 11.3677H5.5261C2.47722 11.3677 0 13.8449 0 16.8938V82.8713C0 85.9202 2.47722 88.3974 5.5261 88.3974H51.5316C54.5805 88.3974 57.0577 85.9202 57.0577 82.8713V82.345L58.9451 82.5991C59.1992 82.6354 59.4442 82.6535 59.6982 82.6535C62.4205 82.6535 64.7888 80.6391 65.1699 77.8715L74.0988 12.502C74.5071 9.48033 72.3928 6.69459 69.3712 6.27718H69.3803ZM28.5379 76.9913H12.8489C12.0594 76.9913 11.4242 77.6265 11.4242 78.4159C11.4242 79.2054 12.0594 79.8406 12.8489 79.8406H28.5379C29.3274 79.8406 29.9625 79.2054 29.9625 78.4159C29.9625 77.6265 29.3274 76.9913 28.5379 76.9913ZM42.8023 69.8591H12.8489C12.0594 69.8591 11.4242 70.4943 11.4242 71.2837C11.4242 72.0732 12.0594 72.7084 12.8489 72.7084H42.8023C43.5918 72.7084 44.227 72.0732 44.227 71.2837C44.227 70.4943 43.5918 69.8591 42.8023 69.8591ZM27.1133 28.672V44.1795H18.5927C18.992 36.3486 22.6216 29.8244 27.1133 28.672ZM27.1133 47.0379V62.5454C22.6216 61.3839 18.992 54.8688 18.5927 47.0379H27.1133ZM29.9625 62.5454V47.0379H38.4831C38.0838 54.8688 34.4542 61.393 29.9625 62.5454ZM29.9625 44.1795V28.672C34.4542 29.8334 38.0838 36.3486 38.4831 44.1795H29.9625ZM45.5971 44.1795H41.3414C41.1146 38.8984 39.6173 34.2434 37.3125 30.9132C41.9222 33.6808 45.1253 38.5445 45.5881 44.1795H45.5971ZM15.7344 44.1795H11.4787C11.9415 38.5445 15.1537 33.6808 19.7542 30.9132C17.4494 34.2434 15.9613 38.8984 15.7253 44.1795H15.7344ZM11.4787 47.0288H15.7344C15.9613 52.3099 17.4585 56.9649 19.7633 60.2951C15.1537 57.5275 11.9505 52.6638 11.4878 47.0288H11.4787ZM41.3414 47.0288H45.5971C45.1344 52.6638 41.9222 57.5275 37.3216 60.2951C39.6264 56.9649 41.1146 52.3099 41.3505 47.0288H41.3414ZM28.5379 25.6322C17.522 25.6322 8.56591 34.5882 8.56591 45.6041C8.56591 56.6201 17.522 65.5762 28.5379 65.5762C39.5357 65.5762 48.4918 56.6382 48.5099 45.6404V45.6041V45.5679C48.4918 34.5701 39.5357 25.6322 28.5379 25.6322ZM19.5546 11.3677L20.3985 5.16107C20.5981 3.70015 21.9501 2.67478 23.4111 2.87441L68.9991 9.09921C70.4601 9.29884 71.4854 10.6509 71.2858 12.1118L62.3569 77.4813C62.1573 78.9422 60.8053 79.9676 59.3443 79.768L57.0758 79.4595V16.8848C57.0758 13.8359 54.5986 11.3587 51.5497 11.3587H19.5637L19.5546 11.3677ZM54.2175 82.8713C54.2175 84.3504 53.0197 85.5482 51.5407 85.5482H5.53518C4.0561 85.5482 2.85833 84.3504 2.85833 82.8713V16.8938C2.85833 15.4148 4.0561 14.217 5.53518 14.217H51.5407C53.0197 14.217 54.2175 15.4148 54.2175 16.8938V82.8713Z" fill="url(#paint0_linear_975_1505)"/>
<defs>
<linearGradient id="paint0_linear_975_1505" x1="15.317" y1="73.0985" x2="71.4038" y2="3.682" gradientUnits="userSpaceOnUse">
<stop stop-color="#BC71F5"/>
<stop offset="0.588235" stop-color="#5EB1F9"/>
<stop offset="1" stop-color="#00F2FE"/>
</linearGradient>
</defs>
</svg>
