<svg width="64" height="85" viewBox="0 0 64 85" fill="none" xmlns="http://www.w3.org/2000/svg">
<path d="M42.7029 62.4605C49.7622 52.0452 58.2313 37.5794 58.2313 26.4697C58.2313 11.8251 46.4062 0 31.7616 0C17.1169 0 5.29184 11.8251 5.29184 26.4697C5.29184 37.5899 13.7609 52.0557 20.8202 62.4605C10.5837 63.6914 0 67.2263 0 73.2231C0 80.8084 16.0544 84.6905 31.7616 84.6905C47.4688 84.6905 63.5231 80.8084 63.5231 73.2231C63.5231 67.2263 52.9394 63.6914 42.7029 62.4605ZM44.1127 26.4592C44.1127 19.5788 38.642 14.1081 31.7616 14.1081C24.8811 14.1081 19.4104 19.5788 19.4104 26.4592C19.4104 33.3396 24.8811 38.8103 31.7616 38.8103C38.642 38.8103 44.1127 33.3396 44.1127 26.4592ZM22.9348 26.4592C22.9348 21.5145 26.8169 17.6325 31.7616 17.6325C36.7062 17.6325 40.5883 21.5145 40.5883 26.4592C40.5883 31.4039 36.7062 35.2859 31.7616 35.2859C26.8169 35.2859 22.9348 31.4039 22.9348 26.4592ZM8.81623 26.4592C8.81623 13.7504 19.0527 3.52439 31.751 3.52439C44.4599 3.52439 54.6858 13.7609 54.6858 26.4592C54.6858 41.4615 36.864 64.9223 31.751 71.2768C26.638 64.9223 8.81623 41.4615 8.81623 26.4592ZM31.751 81.1556C14.4552 81.1556 3.52439 76.3897 3.52439 73.2125C3.52439 70.9191 9.69995 67.037 23.1137 65.6272C26.9957 71.0979 30.173 74.8011 30.5201 75.1588C31.225 76.0426 32.4559 76.0426 33.1713 75.1588C33.529 74.8011 36.5274 71.0979 40.5778 65.6272C53.8126 67.037 60.1671 70.9191 60.1671 73.2125C59.9882 76.3897 49.0468 81.1556 31.7616 81.1556H31.751Z" fill="url(#paint0_linear_975_1503)"/>
<defs>
<linearGradient id="paint0_linear_975_1503" x1="13.1191" y1="70.0353" x2="61.1665" y2="3.53491" gradientUnits="userSpaceOnUse">
<stop stop-color="#BC71F5"/>
<stop offset="0.588235" stop-color="#5EB1F9"/>
<stop offset="1" stop-color="#00F2FE"/>
</linearGradient>
</defs>
</svg>
