<svg width="75" height="75" viewBox="0 0 75 75" fill="none" xmlns="http://www.w3.org/2000/svg">
<path d="M41.3113 29.6978L15.6089 38.7347C15.1392 38.8523 14.7872 39.3215 14.7872 39.9084C14.7872 40.3781 15.1392 40.8474 15.7261 40.9646L28.4011 44.1334L31.5699 56.8083C31.6876 57.278 32.1568 57.7473 32.7437 57.7473C33.2134 57.7473 33.6826 57.3952 33.7998 56.9255L42.719 31.2232C42.8367 30.754 42.719 30.2843 42.4842 30.0494C42.2493 29.6974 41.7801 29.5802 41.3104 29.6974L41.3113 29.6978ZM22.6507 7.75119C22.6507 7.10306 22.1251 6.57741 21.4769 6.57741C20.8288 6.57741 20.3032 7.10262 20.3032 7.75119C20.3032 8.39932 20.8288 8.92453 21.4769 8.92453C22.1251 8.92453 22.6507 8.39932 22.6507 7.75119ZM16.4307 7.75119C16.4307 7.10306 15.9055 6.57741 15.2569 6.57741C14.6088 6.57741 14.0836 7.10262 14.0836 7.75119C14.0836 8.39932 14.6088 8.92453 15.2569 8.92453C15.905 8.92453 16.4307 8.39932 16.4307 7.75119ZM10.2106 7.75119C10.2106 7.10306 9.68498 6.57741 9.03685 6.57741C8.38871 6.57741 7.86307 7.10262 7.86307 7.75119C7.86307 8.39932 8.38871 8.92453 9.03685 8.92453C9.68498 8.92453 10.2106 8.39932 10.2106 7.75119ZM71.0042 9.15937H65.9575V4.11266C65.9575 1.76555 64.0796 0.00488281 61.8497 0.00488281H4.10778C1.87787 0.00488281 0 1.88275 0 4.11266V61.7374C0 64.0845 1.87787 65.8452 4.10778 65.8452H9.15449V70.8919C9.15449 73.239 11.0324 74.9997 13.2623 74.9997H70.887C73.2341 74.9997 74.9948 73.1218 74.9948 70.8919V13.3848C75.112 11.0377 73.2341 9.15981 71.0047 9.15981L71.0042 9.15937ZM71.0042 11.5065C72.0604 11.5065 72.7649 12.3282 72.7649 13.2671V22.1868H65.958V11.5069H71.0047L71.0042 11.5065ZM4.10778 2.35244H61.7325C62.6715 2.35244 63.4932 3.17417 63.4932 4.1131V13.0327H2.34755V4.1131C2.34755 3.17417 3.16928 2.35244 4.10822 2.35244H4.10778ZM2.34711 61.7374V15.3794H63.61V61.7374C63.61 62.6763 62.7887 63.4981 61.8497 63.4981H4.10778C3.16884 63.6153 2.34711 62.794 2.34711 61.7374ZM71.0038 72.7693H13.379C12.3229 72.7693 11.6184 71.9476 11.6184 71.0087V65.962H61.8493C64.1964 65.962 65.9571 64.0841 65.9571 61.8542V24.533H72.764V70.891C72.764 71.9472 71.9423 72.7689 71.0033 72.7689L71.0038 72.7693ZM32.9785 52.4657L30.6314 42.842C30.5142 42.3723 30.1622 42.1379 29.8101 42.0203L20.1864 39.6732L39.9031 32.749L32.979 52.4657H32.9785Z" fill="url(#paint0_linear_975_1510)"/>
<defs>
<linearGradient id="paint0_linear_975_1510" x1="15.4904" y1="62.0141" x2="72.215" y2="3.13363" gradientUnits="userSpaceOnUse">
<stop stop-color="#BC71F5"/>
<stop offset="0.588235" stop-color="#5EB1F9"/>
<stop offset="1" stop-color="#00F2FE"/>
</linearGradient>
</defs>
</svg>
