<?xml version="1.0" encoding="utf-8"?>
<!-- Generator: Adobe Illustrator 23.1.0, SVG Export Plug-In . SVG Version: 6.00 Build 0)  -->
<svg version="1.1" id="Слой_1" xmlns="http://www.w3.org/2000/svg" xmlns:xlink="http://www.w3.org/1999/xlink" x="0px" y="0px"
	 viewBox="0 0 251.7 43.9" style="enable-background:new 0 0 251.7 43.9;" xml:space="preserve">
<style type="text/css">
	.st0{fill-rule:evenodd;clip-rule:evenodd;fill:url(#SVGID_1_);}
</style>
<g id="Слой_x0020_1">
	
		<linearGradient id="SVGID_1_" gradientUnits="userSpaceOnUse" x1="74.2225" y1="41.986" x2="79.8078" y2="48.4999" gradientTransform="matrix(5.5912 0 0 -5.5912 -411.3062 271.6767)">
		<stop  offset="0" style="stop-color:#BC71F5"/>
		<stop  offset="0.5882" style="stop-color:#5EB1F9"/>
		<stop  offset="1" style="stop-color:#00F2FE"/>
	</linearGradient>
	<path class="st0" d="M0.3,2.7v39.5c0,1.5,1.9,2.3,3,1.2l6.6-6.7h26.4c1.3,0,2.4-1,2.4-2.4V2.7c0-1.3-1-2.4-2.4-2.4H2.7
		C1.4,0.4,0.3,1.4,0.3,2.7z M26.6,16.6c1,0,1.7,0.8,1.7,1.8c0,0.9-0.8,1.7-1.7,1.7s-1.7-0.8-1.7-1.7C24.8,17.4,25.6,16.6,26.6,16.6z
		 M19.6,16.6c1,0,1.8,0.8,1.8,1.8c0,0.9-0.8,1.7-1.8,1.7c-0.9,0-1.7-0.8-1.7-1.7C17.9,17.4,18.7,16.6,19.6,16.6z M12.8,16.6
		c1,0,1.7,0.8,1.7,1.8c0,0.9-0.8,1.7-1.7,1.7s-1.7-0.8-1.7-1.7C11.1,17.4,11.8,16.6,12.8,16.6z M35.2,33.2V3.8H3.8
		c0,11.4,0,22.8,0,34.1l4.2-4.2c0.3-0.3,0.8-0.5,1.2-0.5C9.2,33.2,35.2,33.2,35.2,33.2z"/>
	<path d="M56.5,35.9c0.8,0,1.2-0.4,1.2-1.1V10.9c0-0.6-0.6-1.1-1.2-1.1h-4.1c-0.7,0-1.1,0.4-1.1,1.1v23.9c0,0.7,0.3,1.1,1.1,1.1
		H56.5z M54.6,0.4c1.8,0,3.2,1.5,3.2,3.2s-1.5,3.2-3.2,3.2c-1.8,0-3.2-1.5-3.2-3.2S52.8,0.4,54.6,0.4z M77.3,36.3
		c3.4,0,6.7-1,9.1-2.9c2.5-1.9,4-4.6,4-7.8c0-3.1-1.2-5.4-3.4-7.2c-2-1.5-4.6-2.6-8.2-3.7c-2.3-0.7-3.8-1.1-4.9-1.7
		c-1.3-0.7-2-1.5-2-2.7c0-1.5,0.6-2.5,1.8-3.1c0.8-0.4,2.1-0.7,3.6-0.7c1.2,0,2.5,0.4,3.9,1.1C82.1,8.1,83,8.9,84,9.7
		c0.5,0.4,0.8,0.6,1.2,0.6c0.2,0,0.4-0.1,0.6-0.3l2.6-2.8c0.3-0.3,0.4-0.6,0.4-1c0-0.3-0.2-0.6-0.4-0.8c-1.5-1.5-3.1-2.7-4.9-3.6
		c-2-1-4-1.5-6-1.5c-3.7,0-6.9,1-9.2,2.7c-2.3,1.7-3.5,4.1-3.5,7c0,2.6,1,4.8,3,6.4c1.8,1.6,4.8,3.1,8.7,4.2l0.6,0.2
		c1.8,0.5,2.6,0.8,3.6,1.3c1.6,0.9,2.3,2,2.3,3.2c0,1.2-0.5,2.3-1.5,3.1c-1.1,0.9-2.6,1.4-4.4,1.4c-1.6,0-3.2-0.4-4.7-1.3
		c-1.1-0.6-2.2-1.5-3.5-2.7c-0.4-0.3-0.7-0.5-1-0.5c-0.2,0-0.4,0.1-0.6,0.3l-3.1,3.1c-0.3,0.3-0.4,0.5-0.4,0.7c0,0,0,0.1,0.1,0.2
		c0.1,0.3,0.2,0.6,0.6,0.9c1.6,1.7,3.5,3.1,5.8,4.2C72.6,35.8,75,36.3,77.3,36.3L77.3,36.3z M101.2,35.9c0.7,0,1-0.3,1-1V20.9h15.7
		V35c0,0.6,0.3,1,0.9,1h5c0.7,0,1-0.3,1-1V2c0-0.7-0.4-0.9-0.9-0.9h-5.1c-0.6,0-0.9,0.4-0.9,1v12.2h-15.7V2c0-0.7-0.4-0.9-0.8-0.9
		h-5.1c-0.6,0-0.9,0.4-0.9,1V35c0,0.6,0.3,1,0.9,1C96.3,35.9,101.2,35.9,101.2,35.9z M147.8,36.4c3.2,0,6.4-0.8,9.1-2.4
		c2.7-1.6,4.9-3.8,6.5-6.4c1.6-2.7,2.5-5.8,2.5-9.1c0-3.3-0.9-6.4-2.5-9.1c-1.6-2.6-3.8-4.9-6.5-6.5c-2.7-1.6-5.8-2.4-9.1-2.4
		c-3.3,0-6.4,0.8-9.1,2.4c-2.6,1.6-4.8,3.8-6.4,6.5c-1.6,2.7-2.5,5.8-2.5,9.1c0,3.2,0.9,6.4,2.5,9.1s3.7,4.8,6.4,6.4
		C141.5,35.5,144.5,36.4,147.8,36.4L147.8,36.4z M147.8,29.8c-3.1,0-5.9-1.2-7.9-3.3c-2-2.1-3.1-4.9-3.1-8.1s1.2-6,3.1-8.1
		c2-2.1,4.8-3.3,7.9-3.3c3.1,0,5.9,1.2,7.9,3.3c2,2.1,3.2,4.9,3.2,8.1s-1.2,6-3.2,8.1C153.8,28.6,151,29.8,147.8,29.8z M177.7,35.9
		c0.7,0,1-0.3,1-1V23.3h7.6c3.1,0,5.9-1.2,7.9-3.4c2-2.1,3.1-4.8,3.1-7.7c0-2.9-1.1-5.7-3.1-7.8c-2-2.2-4.7-3.5-7.8-3.5h-13.7
		c-0.6,0-0.9,0.3-0.9,1v33c0,0.6,0.3,1,0.9,1L177.7,35.9z M178.6,17.4V7h6.4c1.5,0,2.8,0.5,3.8,1.5c1,1,1.5,2.3,1.5,3.7
		s-0.5,2.7-1.5,3.6c-1,1-2.3,1.5-3.8,1.5H178.6z M206.6,35.9c0.5,0,0.8-0.2,1.1-0.7l16.6-32.1c0.2-0.3,0.3-0.7,0.3-1.1
		c0-0.6-0.4-1.1-1.3-1.1h-23c-0.6,0-1,0.3-1,0.9v4.5c0,0.6,0.4,1,1,1h14l-14.1,27.5c-0.1,0.1-0.1,0.3-0.1,0.4c0,0.1,0.1,0.1,0.1,0.2
		c0.1,0.3,0.3,0.4,0.7,0.4L206.6,35.9z M228.6,35.9c2.5,0,5,0,7.6,0h3.1c2.6,0,5.1,0,7.7,0h3.1c0.7,0,1.1-0.6,1.1-1.2V31
		c0-0.7-0.4-1.1-1.1-1.1c-1.1,0-2.6,0-4.8,0h-1.9c-0.7,0-1.9,0-3.4,0c-1.5,0-2.6,0-3.4,0l2-2l2.1-2.1l4.2-4.2c1.2-1.3,2.3-2.3,3-3.2
		c1.8-2.1,2.7-4.4,2.7-7c-0.1-3.1-1.5-5.8-3.7-7.8c-2.2-1.8-5.1-2.9-8.2-2.9c-1.9,0-3.8,0.4-5.5,1.4c-1.6,0.8-3,2.1-4.2,3.6
		c-0.2,0.3-0.4,0.8-0.7,1.3c-0.3,0.6-0.4,1-0.4,1.3c0.1,0.3,0.2,0.6,0.5,0.7l2.6,1.3c0.4,0.2,0.8,0.3,1.1,0.3c0.3,0,0.7-0.2,0.9-0.6
		c1.4-2.2,3.2-3.4,5.5-3.5c1.7,0,3.1,0.4,4.2,1.4c1.1,1,1.7,2.2,1.7,3.7c0,1.3-0.6,2.6-1.9,3.9l-15,15.9c-0.1,0.2-0.2,0.4-0.2,0.6
		v2.6C227.5,35.4,228,35.9,228.6,35.9L228.6,35.9z"/>
</g>
</svg>
