<svg width="252" height="44" viewBox="0 0 252 44" fill="none" xmlns="http://www.w3.org/2000/svg">
<path fill-rule="evenodd" clip-rule="evenodd" d="M0.299988 2.70005V42.2001C0.299988 43.7001 2.19999 44.5001 3.29999 43.4001L9.89999 36.7001H36.3C37.6 36.7001 38.7 35.7 38.7 34.3V2.70005C38.7 1.40005 37.7 0.300049 36.3 0.300049H2.69999C1.39999 0.400049 0.299988 1.40005 0.299988 2.70005ZM26.6 16.6C27.6 16.6 28.3 17.4 28.3 18.4C28.3 19.3 27.5 20.1 26.6 20.1C25.7 20.1 24.9 19.3 24.9 18.4C24.8 17.4 25.6 16.6 26.6 16.6ZM19.6 16.6C20.6 16.6 21.4 17.4 21.4 18.4C21.4 19.3 20.6 20.1 19.6 20.1C18.7 20.1 17.9 19.3 17.9 18.4C17.9 17.4 18.7 16.6 19.6 16.6ZM12.8 16.6C13.8 16.6 14.5 17.4 14.5 18.4C14.5 19.3 13.7 20.1 12.8 20.1C11.9 20.1 11.1 19.3 11.1 18.4C11.1 17.4 11.8 16.6 12.8 16.6ZM35.2 33.2001V3.80005H3.79999C3.79999 15.2 3.79999 26.6001 3.79999 37.9001L7.99999 33.7001C8.29999 33.4001 8.79999 33.2001 9.19999 33.2001H35.2Z" fill="url(#paint0_linear_439_27)"/>
<path d="M56.5 35.9001C57.3 35.9001 57.7 35.5 57.7 34.8V10.9C57.7 10.3 57.1 9.80005 56.5 9.80005H52.4C51.7 9.80005 51.3 10.2 51.3 10.9V34.8C51.3 35.5 51.6 35.9001 52.4 35.9001H56.5ZM54.6 0.400049C56.4 0.400049 57.8 1.90005 57.8 3.60005C57.8 5.30005 56.3 6.80005 54.6 6.80005C52.8 6.80005 51.4 5.30005 51.4 3.60005C51.4 1.90005 52.8 0.400049 54.6 0.400049ZM77.3 36.3C80.7 36.3 84 35.3001 86.4 33.4001C88.9 31.5001 90.4 28.8001 90.4 25.6C90.4 22.5001 89.2 20.2 87 18.4C85 16.9 82.4 15.8 78.8 14.7C76.5 14 75 13.6 73.9 13C72.6 12.3 71.9 11.5 71.9 10.3C71.9 8.80005 72.5 7.80005 73.7 7.20005C74.5 6.80005 75.8 6.50005 77.3 6.50005C78.5 6.50005 79.8 6.90005 81.2 7.60005C82.1 8.10005 83 8.90005 84 9.70005C84.5 10.1 84.8 10.3 85.2 10.3C85.4 10.3 85.6 10.2 85.8 10L88.4 7.20005C88.7 6.90005 88.8 6.60005 88.8 6.20005C88.8 5.90005 88.6 5.60005 88.4 5.40005C86.9 3.90005 85.3 2.70005 83.5 1.80005C81.5 0.800049 79.5 0.300049 77.5 0.300049C73.8 0.300049 70.6 1.30005 68.3 3.00005C66 4.70005 64.8 7.10005 64.8 10C64.8 12.6 65.8 14.8 67.8 16.4C69.6 18 72.6 19.5 76.5 20.6L77.1 20.8C78.9 21.3 79.7 21.6 80.7 22.1C82.3 23 83 24.1 83 25.3C83 26.5 82.5 27.6 81.5 28.4C80.4 29.3 78.9 29.8 77.1 29.8C75.5 29.8 73.9 29.4 72.4 28.5C71.3 27.9 70.2 27 68.9 25.8C68.5 25.5 68.2 25.3 67.9 25.3C67.7 25.3 67.5 25.4 67.3 25.6L64.2 28.7001C63.9 29.0001 63.8 29.2 63.8 29.4C63.8 29.4 63.8 29.5 63.9 29.6C64 29.9 64.1 30.2 64.5 30.5C66.1 32.2 68 33.6001 70.3 34.7001C72.6 35.8001 75 36.3 77.3 36.3ZM101.2 35.9001C101.9 35.9001 102.2 35.6001 102.2 34.9001V20.9H117.9V35C117.9 35.6 118.2 36 118.8 36H123.8C124.5 36 124.8 35.7 124.8 35V2.00005C124.8 1.30005 124.4 1.10005 123.9 1.10005H118.8C118.2 1.10005 117.9 1.50005 117.9 2.10005V14.3H102.2V2.00005C102.2 1.30005 101.8 1.10005 101.4 1.10005H96.3C95.7 1.10005 95.4 1.50005 95.4 2.10005V35C95.4 35.6 95.7 36 96.3 36C96.3 35.9 101.2 35.9001 101.2 35.9001ZM147.8 36.4001C151 36.4001 154.2 35.6 156.9 34C159.6 32.4 161.8 30.2 163.4 27.6C165 24.9 165.9 21.8 165.9 18.5C165.9 15.2 165 12.1 163.4 9.40005C161.8 6.80005 159.6 4.50005 156.9 2.90005C154.2 1.30005 151.1 0.500049 147.8 0.500049C144.5 0.500049 141.4 1.30005 138.7 2.90005C136.1 4.50005 133.9 6.70005 132.3 9.40005C130.7 12.1 129.8 15.2 129.8 18.5C129.8 21.7 130.7 24.9 132.3 27.6C133.9 30.3001 136 32.4 138.7 34C141.5 35.5 144.5 36.4001 147.8 36.4001ZM147.8 29.8C144.7 29.8 141.9 28.6 139.9 26.5C137.9 24.4 136.8 21.6 136.8 18.4C136.8 15.2 138 12.4 139.9 10.3C141.9 8.20005 144.7 7.00005 147.8 7.00005C150.9 7.00005 153.7 8.20005 155.7 10.3C157.7 12.4 158.9 15.2 158.9 18.4C158.9 21.6 157.7 24.4 155.7 26.5C153.8 28.6 151 29.8 147.8 29.8ZM177.7 35.9001C178.4 35.9001 178.7 35.6001 178.7 34.9001V23.3H186.3C189.4 23.3 192.2 22.1 194.2 19.9C196.2 17.8 197.3 15.1 197.3 12.2C197.3 9.30005 196.2 6.50005 194.2 4.40005C192.2 2.20005 189.5 0.900049 186.4 0.900049H172.7C172.1 0.900049 171.8 1.20005 171.8 1.90005V34.9001C171.8 35.5001 172.1 35.9001 172.7 35.9001H177.7ZM178.6 17.4V7.00005H185C186.5 7.00005 187.8 7.50005 188.8 8.50005C189.8 9.50005 190.3 10.8 190.3 12.2C190.3 13.6 189.8 14.9 188.8 15.8C187.8 16.8 186.5 17.3 185 17.3H178.6V17.4ZM206.6 35.9001C207.1 35.9001 207.4 35.7001 207.7 35.2001L224.3 3.10005C224.5 2.80005 224.6 2.40005 224.6 2.00005C224.6 1.40005 224.2 0.900049 223.3 0.900049H200.3C199.7 0.900049 199.3 1.20005 199.3 1.80005V6.30005C199.3 6.90005 199.7 7.30005 200.3 7.30005H214.3L200.2 34.8C200.1 34.9 200.1 35.1001 200.1 35.2001C200.1 35.3001 200.2 35.3001 200.2 35.4001C200.3 35.7001 200.5 35.8 200.9 35.8L206.6 35.9001ZM228.6 35.9001C231.1 35.9001 233.6 35.9001 236.2 35.9001H239.3C241.9 35.9001 244.4 35.9001 247 35.9001H250.1C250.8 35.9001 251.2 35.3001 251.2 34.7001V31C251.2 30.3 250.8 29.9 250.1 29.9C249 29.9 247.5 29.9 245.3 29.9H243.4C242.7 29.9 241.5 29.9 240 29.9C238.5 29.9 237.4 29.9 236.6 29.9L238.6 27.9L240.7 25.8L244.9 21.6C246.1 20.3001 247.2 19.3 247.9 18.4C249.7 16.3 250.6 14 250.6 11.4C250.5 8.30005 249.1 5.60005 246.9 3.60005C244.7 1.80005 241.8 0.700049 238.7 0.700049C236.8 0.700049 234.9 1.10005 233.2 2.10005C231.6 2.90005 230.2 4.20005 229 5.70005C228.8 6.00005 228.6 6.50005 228.3 7.00005C228 7.60005 227.9 8.00005 227.9 8.30005C228 8.60005 228.1 8.90005 228.4 9.00005L231 10.3C231.4 10.5 231.8 10.6 232.1 10.6C232.4 10.6 232.8 10.4 233 10C234.4 7.80005 236.2 6.60005 238.5 6.50005C240.2 6.50005 241.6 6.90005 242.7 7.90005C243.8 8.90005 244.4 10.1 244.4 11.6C244.4 12.9 243.8 14.2 242.5 15.5L227.5 31.4C227.4 31.6 227.3 31.8 227.3 32V34.6C227.5 35.4 228 35.9001 228.6 35.9001Z" fill="white"/>
<defs>
<linearGradient id="paint0_linear_439_27" x1="3.68663" y1="36.9246" x2="34.9152" y2="0.504111" gradientUnits="userSpaceOnUse">
<stop stop-color="#BC71F5"/>
<stop offset="0.5882" stop-color="#5EB1F9"/>
<stop offset="1" stop-color="#00F2FE"/>
</linearGradient>
</defs>
</svg>
