<?xml version="1.0" standalone="no"?>
<!DOCTYPE svg PUBLIC "-//W3C//DTD SVG 20010904//EN"
 "http://www.w3.org/TR/2001/REC-SVG-20010904/DTD/svg10.dtd">
<svg version="1.0" xmlns="http://www.w3.org/2000/svg"
 width="704.000000pt" height="704.000000pt" viewBox="0 0 704.000000 704.000000"
 preserveAspectRatio="xMidYMid meet">
<metadata>
Created by potrace 1.14, written by Peter Selinger 2001-2017
</metadata>
<g transform="translate(0.000000,704.000000) scale(0.100000,-0.100000)"
fill="#000000" stroke="none">
<path d="M738 6971 c-119 -38 -207 -114 -256 -219 l-27 -57 0 -3245 0 -3245
27 -46 c54 -92 141 -141 248 -142 119 0 116 -2 567 455 224 227 470 477 547
555 l140 143 2160 2 2161 3 58 27 c80 38 158 115 193 191 l29 62 0 2605 c0
2430 -1 2609 -17 2660 -35 113 -113 196 -226 242 l-57 23 -2745 2 c-2635 2
-2747 1 -2802 -16z m5298 -542 c3 -6 3 -1065 -1 -2355 l-8 -2344 -2106 -2
-2106 -3 -50 -23 c-40 -18 -124 -97 -402 -375 l-353 -352 0 2728 0 2727 1173
3 c3490 7 3846 7 3853 -4z"/>
<path d="M2334 4357 c-174 -84 -208 -339 -62 -462 53 -45 107 -65 176 -65 79
0 136 26 196 90 119 127 88 339 -62 427 -66 39 -177 43 -248 10z"/>
<path d="M3453 4367 c-66 -25 -119 -73 -152 -137 -122 -245 124 -491 369 -369
94 48 148 132 149 235 1 78 -25 141 -83 200 -77 76 -191 105 -283 71z"/>
<path d="M4531 4349 c-99 -49 -143 -125 -142 -241 1 -115 55 -203 153 -252
175 -87 382 49 381 250 -2 208 -207 335 -392 243z"/>
</g>
</svg>
