<svg xmlns="http://www.w3.org/2000/svg" xmlns:xlink="http://www.w3.org/1999/xlink" width="700" height="2774.747"><symbol fill="none" id="sprite-arrow-right" viewBox="0 0 19 10"><path d="M18.424 5.424a.6.6 0 0 0 0-.848L14.606.757a.6.6 0 1 0-.849.849L17.151 5l-3.394 3.394a.6.6 0 1 0 .849.849l3.818-3.819ZM.5 5.6H18V4.4H.5v1.2Z" fill="url(#a)"/><defs><linearGradient id="a" x1=".5" y1="5.5" x2="18" y2="5.5" gradientUnits="userSpaceOnUse"><stop stop-color="#00A3FF"/><stop offset=".5" stop-color="#7729FF"/><stop offset="1" stop-color="#EB00FF"/></linearGradient></defs></symbol><use fill="none" xlink:href="#sprite-arrow-right" width="19" height="10"/><symbol id="sprite-back" viewBox="0 0 6 10"><path d="M4.466 9.753.252 5.628a.78.78 0 0 1-.194-.292A.967.967 0 0 1 0 5c0-.12.02-.232.058-.336a.78.78 0 0 1 .194-.292L4.466.247A.879.879 0 0 1 5.106 0c.26 0 .474.082.642.247A.841.841 0 0 1 6 .874a.841.841 0 0 1-.252.628L2.176 5l3.572 3.498A.841.841 0 0 1 6 9.126a.841.841 0 0 1-.252.627.879.879 0 0 1-.641.247.879.879 0 0 1-.641-.247Z"/></symbol><use xlink:href="#sprite-back" y="10" width="6" height="10"/><symbol id="sprite-cart" viewBox="0 0 700 666.67"><path class="cls-1" d="M0 25.32C0 11.33 11.56 0 25.81 0h25.28C98.82 0 139.08 34.86 145 81.31l6.84 53.71h487.91c36.82 0 65.02 32.12 59.56 67.83l-36.9 241.29c-6.95 45.44-46.75 79.06-93.6 79.06H239.96c-46.85 0-86.65-33.62-93.6-79.06l-42.83-280.06-.09-.62-9.67-75.88c-2.69-21.12-20.99-36.96-42.69-36.96H25.8C11.56 50.63 0 39.3 0 25.32Zm159.03 160.34 38.38 250.99c3.16 20.65 21.25 35.93 42.54 35.93h328.86c21.3 0 39.39-15.28 42.55-35.93l36.9-241.3c.78-5.1-3.25-9.69-8.51-9.69H159.03Z"/><path d="M610.89 632.91c0 18.64-15.41 33.76-34.42 33.76s-34.42-15.11-34.42-33.76 15.41-33.75 34.42-33.75 34.42 15.11 34.42 33.75Zm-344.16 0c0 18.64-15.41 33.76-34.42 33.76s-34.42-15.11-34.42-33.76 15.41-33.75 34.42-33.75 34.42 15.11 34.42 33.75Z"/></symbol><use xlink:href="#sprite-cart" y="20" width="700" height="666.67"/><symbol id="sprite-catalog" viewBox="0 0 408 402.33"><path d="M170 17c0-9.35-7.65-17-17-17H17C7.65 0 0 7.65 0 17v136c0 9.35 7.65 17 17 17h136c9.35 0 17-7.65 17-17V17ZM34 34h102v102H34V34Zm374-17c0-9.35-7.65-17-17-17H255c-9.35 0-17 7.65-17 17v136c0 9.35 7.65 17 17 17h136c9.35 0 17-7.65 17-17V17ZM272 34h102v102H272V34ZM170 249.33c0-9.35-7.65-17-17-17H17c-9.35 0-17 7.65-17 17v136c0 9.35 7.65 17 17 17h136c9.35 0 17-7.65 17-17v-136Zm-136 17h102v102H34v-102Zm374-17c0-9.35-7.65-17-17-17H255c-9.35 0-17 7.65-17 17v136c0 9.35 7.65 17 17 17h136c9.35 0 17-7.65 17-17v-136Zm-136 17h102v102H272v-102Z"/></symbol><use xlink:href="#sprite-catalog" y="686.67" width="408" height="402.33"/><symbol id="sprite-close" viewBox="0 0 41 41"><path fill-rule="evenodd" d="M.414 35.644 35.769.289l4.419 4.419L4.833 40.63.414 35.644Z"/><path fill-rule="evenodd" d="M.237 4.531 4.48.289l35.355 35.355-4.243 4.243L.237 4.531Z"/></symbol><use xlink:href="#sprite-close" y="1089" width="41" height="41"/><symbol id="sprite-compare" viewBox="0 0 14 20"><path fill-rule="evenodd" d="M.594 7.999C1.37 7.999 2 8.629 2 9.405V20H0V8.594c0-.328.266-.595.594-.595Zm6.86-4c.301 0 .546.245.546.546V20H5.999V5.454c0-.803.652-1.455 1.455-1.455Zm6-3.999c.301 0 .546.244.546.545v19.454h-2.001V1.454c0-.803.652-1.454 1.455-1.454Z"/></symbol><use xlink:href="#sprite-compare" y="1130" width="14" height="20"/><symbol id="sprite-home" viewBox="0 0 30 28"><path d="M26 27H4V15H2.23c-1.14 0-1.67-1.42-.81-2.17L13.13 1.74c1.05-.99 2.69-.99 3.74 0l11.71 11.09c.86.75.33 2.17-.81 2.17h-1.76v12Z"/><path d="M19 27h-8v-6c0-2.21 1.79-4 4-4s4 1.79 4 4v6Z"/></symbol><use xlink:href="#sprite-home" y="1150" width="30" height="28"/><symbol id="sprite-list" viewBox="0 0 16 12"><path fill-rule="evenodd" d="M0 0h15.999v1.999H0V0Zm0 4.999h15.999v2H0v-2Zm0 5h15.999v2H0v-2Z"/></symbol><use xlink:href="#sprite-list" y="1178" width="16" height="12"/><symbol id="sprite-location" viewBox="0 0 16 20"><path d="M8 10c.55 0 1.02-.196 1.412-.588C9.804 9.021 10 8.55 10 8c0-.55-.196-1.02-.588-1.412A1.926 1.926 0 0 0 8 6c-.55 0-1.02.196-1.412.588A1.926 1.926 0 0 0 6 8c0 .55.196 1.02.588 1.412C6.979 9.804 7.45 10 8 10Zm0 7.35c2.033-1.867 3.542-3.563 4.525-5.088C13.508 10.738 14 9.383 14 8.2c0-1.817-.58-3.304-1.738-4.462C11.104 2.579 9.683 2 8 2c-1.683 0-3.104.58-4.263 1.737C2.58 4.896 2 6.383 2 8.2c0 1.183.492 2.538 1.475 4.063.983 1.524 2.492 3.22 4.525 5.087ZM8 20c-2.683-2.283-4.688-4.404-6.013-6.363C.662 11.68 0 9.867 0 8.2c0-2.5.804-4.492 2.413-5.975C4.02.742 5.883 0 8 0c2.117 0 3.98.742 5.588 2.225S16 5.7 16 8.2c0 1.667-.662 3.48-1.988 5.438C12.688 15.595 10.683 17.716 8 20Z"/></symbol><use xlink:href="#sprite-location" y="1190" width="16" height="20"/><symbol id="sprite-minus" viewBox="0 -192 426.667 426"><path d="M405.332 43h-384C9.559 43 0 33.441 0 21.668 0 9.891 9.559.332 21.332.332h384c11.777 0 21.336 9.559 21.336 21.336 0 11.773-9.559 21.332-21.336 21.332zm0 0"/></symbol><use xlink:href="#sprite-minus" y="1210" width="426.667" height="426"/><symbol id="sprite-plus" viewBox="0 0 426.667 426.667"><path d="M405.332 192H234.668V21.332C234.668 9.559 225.109 0 213.332 0 201.559 0 192 9.559 192 21.332V192H21.332C9.559 192 0 201.559 0 213.332c0 11.777 9.559 21.336 21.332 21.336H192v170.664c0 11.777 9.559 21.336 21.332 21.336 11.777 0 21.336-9.559 21.336-21.336V234.668h170.664c11.777 0 21.336-9.559 21.336-21.336 0-11.773-9.559-21.332-21.336-21.332zm0 0"/></symbol><use xlink:href="#sprite-plus" y="1636" width="426.667" height="426.667"/><symbol id="sprite-sandwich" viewBox="0 0 51 38"><path fill-rule="evenodd" d="M.124.499h50v6.25h-50V.499Zm0 15.625h50v6.25h-50v-6.25Zm0 15.625h50v6.25h-50v-6.25Z"/></symbol><use xlink:href="#sprite-sandwich" y="2062.667" width="51" height="38"/><symbol id="sprite-search" viewBox="0 0 612.01 612.08"><path d="M237.89 0C106.52 0 0 106.52 0 237.89s106.52 237.89 237.89 237.89c50.52 0 97.37-15.76 135.88-42.6l.03-.03 176.43 176.43c3.27 3.27 8.48 3.36 11.84 0l47.55-47.55c3.27-3.27 3.11-8.7-.03-11.84l-176.41-176.4c26.84-38.54 42.6-85.39 42.6-135.91C475.79 106.52 369.26 0 237.89 0Zm0 419.81c-100.48 0-181.92-81.44-181.92-181.92S137.42 55.97 237.89 55.97s181.92 81.44 181.92 181.92-81.44 181.92-181.92 181.92Z"/></symbol><use xlink:href="#sprite-search" y="2100.667" width="612.01" height="612.08"/><symbol id="sprite-trash" viewBox="0 0 12 12"><path d="M2.667 12c-.367 0-.68-.13-.942-.391a1.285 1.285 0 0 1-.392-.942V2a.647.647 0 0 1-.475-.191.647.647 0 0 1-.191-.476c0-.189.063-.347.19-.475a.647.647 0 0 1 .476-.191H4c0-.19.064-.348.192-.476A.645.645 0 0 1 4.666 0h2.667c.19 0 .348.064.476.191a.647.647 0 0 1 .19.476h2.667a.64.64 0 0 1 .475.191.646.646 0 0 1 .192.475.646.646 0 0 1-.192.476.645.645 0 0 1-.475.191v8.667c0 .366-.13.68-.39.942-.262.26-.576.391-.943.391H2.666Zm0-10v8.667h6.666V2H2.666ZM4 8.667a.64.64 0 0 0 .192.474.643.643 0 0 0 .474.192.646.646 0 0 0 .476-.192.645.645 0 0 0 .191-.474V4a.647.647 0 0 0-.191-.475.647.647 0 0 0-.476-.192.644.644 0 0 0-.474.192A.646.646 0 0 0 4 4v4.667Zm2.667 0a.64.64 0 0 0 .192.474.643.643 0 0 0 .474.192.646.646 0 0 0 .476-.192.644.644 0 0 0 .19-.474V4a.647.647 0 0 0-.19-.475.647.647 0 0 0-.476-.192.645.645 0 0 0-.474.192.646.646 0 0 0-.192.475v4.667Z"/></symbol><use xlink:href="#sprite-trash" y="2712.747" width="12" height="12"/><symbol id="sprite-user" viewBox="0 0 24 28"><path d="M12 14c3.87 0 7-3.13 7-7s-3.13-7-7-7-7 3.13-7 7 3.13 7 7 7Zm0-12c2.76 0 5 2.24 5 5s-2.24 5-5 5-5-2.24-5-5 2.24-5 5-5Zm1 14h-2C4.92 16 0 20.92 0 27c0 .55.45 1 1 1h22c.55 0 1-.45 1-1 0-6.08-4.92-11-11-11ZM2.06 26c.51-4.55 4.36-8 8.94-8h2c4.58 0 8.43 3.45 8.94 8H2.06Z"/></symbol><use xlink:href="#sprite-user" y="2724.747" width="24" height="28"/><symbol id="sprite-wishlist" viewBox="0 0 20 18"><path fill-rule="evenodd" clip-rule="evenodd" d="M.25 6.37C.25 3.07 2.658.25 5.8.25c1.7 0 3.194.836 4.2 2.118C11.006 1.086 12.5.25 14.2.25c3.142 0 5.55 2.822 5.55 6.12 0 1.325-.501 2.601-1.225 3.758-.725 1.16-1.702 2.245-2.723 3.205-2.043 1.918-4.343 3.407-5.412 4.058a.75.75 0 0 1-.78 0c-1.069-.652-3.37-2.14-5.411-4.059-1.022-.96-1.999-2.044-2.724-3.204C.75 8.971.25 7.695.25 6.37ZM5.8 1.75c-2.16 0-4.05 1.986-4.05 4.62 0 .948.361 1.947.997 2.963.633 1.013 1.512 1.999 2.478 2.906 1.716 1.61 3.642 2.916 4.775 3.629 1.133-.713 3.06-2.018 4.775-3.629.966-.907 1.845-1.893 2.478-2.906.636-1.016.997-2.015.997-2.964 0-2.631-1.89-4.619-4.05-4.619-1.48 0-2.816.915-3.528 2.352a.75.75 0 0 1-1.344 0C8.616 2.666 7.28 1.75 5.8 1.75Z"/></symbol><use xlink:href="#sprite-wishlist" y="2752.747" width="22" height="22"/></svg>